<?xml version="1.0" encoding="UTF-8"?>
<svg width="24" height="24" viewBox="0 0 80 80" fill="currentColor" xmlns="http://www.w3.org/2000/svg">
  <path d="M40 0C17.91 0 0 17.91 0 40C0 62.09 17.91 80 40 80C62.09 80 80 62.09 80 40C80 17.91 62.09 0 40 0ZM40 73.55C21.41 73.55 6.45 58.59 6.45 40C6.45 21.41 21.41 6.45 40 6.45C58.59 6.45 73.55 21.41 73.55 40C73.55 58.59 58.59 73.55 40 73.55Z" />
  <path d="M39.84 17.42C34.59 17.42 29.82 19.07 26.26 21.78C22.7 24.49 20.34 28.29 20.34 32.43C20.34 33.15 20.4 33.86 20.53 34.55C21.02 36.67 18.28 37.78 17.04 36.01C16.1 34.63 15.59 32.86 15.59 30.95C15.59 28.99 16.25 26.3 17.69 23.77C19.13 21.23 21.31 18.91 24.23 17.15C27.15 15.38 30.78 14.2 35.11 14.2C39.44 14.2 43.08 15.38 46 17.15C48.92 18.91 51.1 21.23 52.54 23.77C53.98 26.3 54.63 28.99 54.63 30.95C54.63 32.91 53.98 35.6 52.54 38.13C51.1 40.67 48.92 42.99 46 44.75C43.08 46.51 39.44 47.7 35.11 47.7C33.45 47.7 31.89 47.53 30.42 47.22C27.82 46.66 25.85 48.88 26.84 51.36C28.27 55.07 32.35 57.12 37.91 57.12C43.16 57.12 47.92 55.47 51.48 52.76C55.05 50.05 57.4 46.25 57.4 42.11C57.4 37.97 55.05 34.17 51.48 31.46C47.92 28.75 43.16 27.1 37.91 27.1C32.65 27.1 27.89 28.75 24.33 31.46C20.76 34.17 18.41 37.97 18.41 42.11C18.41 46.25 20.76 50.05 24.33 52.76C27.89 55.47 32.65 57.12 37.91 57.12C42.94 57.12 47.5 55.6 51.02 53.14C54.54 50.68 57.01 47.21 57.99 43.43C58.39 41.7 60.47 40.99 62.04 41.97C63.18 42.69 63.66 44.02 63.42 45.37C61.64 53.51 54.49 60.71 42.42 61.88C30.56 63.03 22.43 57.12 19.45 50.55C18.4 48.1 17.83 45.42 17.83 42.62C17.83 39.26 18.8 36.07 20.6 33.28C22.39 30.5 25.01 28.18 28.25 26.54C31.5 24.91 35.3 24 39.44 24C43.74 24.22 47.67 25.48 50.95 27.58C54.24 29.68 56.87 32.62 58.56 36.05C60.24 39.49 61 43.43 60.75 47.48C60.5 51.53 59.24 55.69 57.04 59.36C54.83 63.02 51.67 66.17 47.71 68.37C43.75 70.58 39 71.83 33.75 71.83C28.51 71.83 23.74 70.58 19.78 68.37C15.82 66.17 12.67 63.02 10.46 59.36C8.26 55.69 7 51.53 6.75 47.48C6.5 43.43 7.26 39.49 8.95 36.05C10.63 32.62 13.26 29.68 16.55 27.58C19.83 25.48 23.76 24.22 28.06 24C32.2 24 35.99 24.91 39.24 26.54C42.48 28.18 45.11 30.5 46.9 33.28C48.7 36.07 49.67 39.26 49.67 42.62C49.67 46.26 48.5 49.72 46.37 52.57C44.25 55.43 41.32 57.67 37.89 58.92C34.38 60.21 30.27 59.25 27.88 56.36C24.7 52.53 18.98 53.33 17.03 58.01C16.24 59.91 16.39 62.04 17.47 63.98C19.79 68.08 25.47 71.83 34.14 71.83C38.47 71.83 42.11 70.65 45.02 68.89C47.94 67.12 50.12 64.8 51.56 62.27C53 59.73 53.66 57.05 53.66 55.08C53.66 53.12 53 50.44 51.56 47.9C50.12 45.36 47.94 43.04 45.02 41.28C42.11 39.51 38.47 38.33 34.14 38.33C29.81 38.33 26.18 39.51 23.26 41.28C20.34 43.04 18.16 45.36 16.72 47.9C15.28 50.44 14.63 53.12 14.63 55.08C14.63 57.05 15.28 59.73 16.72 62.27C18.16 64.8 20.34 67.12 23.26 68.89C26.18 70.65 29.81 71.83 34.14 71.83C42.56 71.83 48.18 68.23 50.63 64.31C51.97 62.25 53.99 65.07 52.08 66.37C48.85 68.6 43.26 71.48 34.14 71.83C29.59 72.03 25.45 71.02 21.82 69.09C18.19 67.15 15.12 64.37 12.87 61.04C10.63 57.71 9.26 53.92 9.01 49.85C8.75 45.78 9.61 41.48 11.52 37.46C13.43 33.44 16.39 29.76 20.14 26.93C23.9 24.11 28.45 22.2 33.63 21.61C38.81 21.02 44.62 21.73 50.27 24.75C47.28 21.05 42.95 17.42 39.84 17.42Z" />
</svg>